<svg width="1440" height="614" viewBox="0 0 1440 614" fill="none" xmlns="http://www.w3.org/2000/svg">
<path d="M0 614L34.3 521.9C68.6 429.8 137 245.6 206 245.6C274.3 245.6 343 429.8 411 481.031C480 531.494 549 450.906 617 439.969C685.7 429.8 754 491.2 823 481.031C891.4 470.094 960 389.506 1029 317.169C1097.1 245.6 1166 184.2 1234 225.069C1302.9 266.706 1371 408.694 1406 481.031L1440 552.6V0H1405.7C1371.4 0 1303 0 1234 0C1165.7 0 1097 0 1029 0C960 0 891 0 823 0C754.3 0 686 0 617 0C548.6 0 480 0 411 0C342.9 0 274 0 206 0C137.1 0 69 0 34 0H0V614Z" fill="#2C3A69" fill-opacity="0.69"/>
</svg>
